<mxfile host="app.diagrams.net" modified="2021-04-26T08:37:09.248Z" agent="5.0 (Windows NT 10.0; Win64; x64) AppleWebKit/537.36 (KHTML, like Gecko) Chrome/90.0.4430.85 Safari/537.36" etag="2rIUY4S0ZxuH02R-bcsN" version="14.6.6" type="github">
  <diagram id="XUgqKsKB2ALK8Womc9Dn" name="Page-1">
    <mxGraphModel dx="1662" dy="726" grid="1" gridSize="10" guides="1" tooltips="1" connect="1" arrows="1" fold="1" page="1" pageScale="1" pageWidth="827" pageHeight="1169" math="0" shadow="0">
      <root>
        <mxCell id="0" />
        <mxCell id="1" parent="0" />
        <mxCell id="vBVGF3Je4iqO3mpxZqWS-20" value="opt" style="shape=umlFrame;whiteSpace=wrap;html=1;" parent="1" vertex="1">
          <mxGeometry x="170" y="270" width="460" height="70" as="geometry" />
        </mxCell>
        <mxCell id="vBVGF3Je4iqO3mpxZqWS-1" value="opt" style="shape=umlFrame;whiteSpace=wrap;html=1;" parent="1" vertex="1">
          <mxGeometry x="170" y="350" width="460" height="70" as="geometry" />
        </mxCell>
        <mxCell id="vBVGF3Je4iqO3mpxZqWS-2" value=":ItemListener" style="shape=umlLifeline;perimeter=lifelinePerimeter;whiteSpace=wrap;html=1;container=1;collapsible=0;recursiveResize=0;outlineConnect=0;" parent="1" vertex="1">
          <mxGeometry x="270" y="120" width="100" height="560" as="geometry" />
        </mxCell>
        <mxCell id="vBVGF3Je4iqO3mpxZqWS-3" value="" style="html=1;points=[];perimeter=orthogonalPerimeter;" parent="vBVGF3Je4iqO3mpxZqWS-2" vertex="1">
          <mxGeometry x="45" y="80" width="10" height="460" as="geometry" />
        </mxCell>
        <mxCell id="vBVGF3Je4iqO3mpxZqWS-4" value="" style="shape=umlLifeline;participant=umlActor;perimeter=lifelinePerimeter;whiteSpace=wrap;html=1;container=1;collapsible=0;recursiveResize=0;verticalAlign=top;spacingTop=36;outlineConnect=0;" parent="1" vertex="1">
          <mxGeometry x="60" y="120" width="20" height="560" as="geometry" />
        </mxCell>
        <mxCell id="vBVGF3Je4iqO3mpxZqWS-5" value="itemStateChanged(ItemEvent SELECTED)" style="html=1;verticalAlign=bottom;endArrow=block;entryX=0;entryY=0;" parent="1" source="vBVGF3Je4iqO3mpxZqWS-4" target="vBVGF3Je4iqO3mpxZqWS-3" edge="1">
          <mxGeometry x="-0.021" relative="1" as="geometry">
            <mxPoint x="135" y="170" as="sourcePoint" />
            <mxPoint as="offset" />
          </mxGeometry>
        </mxCell>
        <mxCell id="vBVGF3Je4iqO3mpxZqWS-6" value="" style="html=1;verticalAlign=bottom;endArrow=open;dashed=1;endSize=8;exitX=0;exitY=0.95;" parent="1" source="vBVGF3Je4iqO3mpxZqWS-3" target="vBVGF3Je4iqO3mpxZqWS-4" edge="1">
          <mxGeometry x="0.1021" y="-58" relative="1" as="geometry">
            <mxPoint x="135" y="246" as="targetPoint" />
            <mxPoint as="offset" />
          </mxGeometry>
        </mxCell>
        <mxCell id="vBVGF3Je4iqO3mpxZqWS-7" value="cboxEpit: JComboBox" style="shape=umlLifeline;perimeter=lifelinePerimeter;whiteSpace=wrap;html=1;container=1;collapsible=0;recursiveResize=0;outlineConnect=0;" parent="1" vertex="1">
          <mxGeometry x="414" y="120" width="100" height="560" as="geometry" />
        </mxCell>
        <mxCell id="vBVGF3Je4iqO3mpxZqWS-8" value="" style="html=1;points=[];perimeter=orthogonalPerimeter;" parent="vBVGF3Je4iqO3mpxZqWS-7" vertex="1">
          <mxGeometry x="45" y="100" width="10" height="40" as="geometry" />
        </mxCell>
        <mxCell id="vBVGF3Je4iqO3mpxZqWS-9" value="getSelectedItem()" style="html=1;verticalAlign=bottom;endArrow=block;entryX=0;entryY=0;" parent="1" source="vBVGF3Je4iqO3mpxZqWS-3" target="vBVGF3Je4iqO3mpxZqWS-8" edge="1">
          <mxGeometry relative="1" as="geometry">
            <mxPoint x="389" y="220" as="sourcePoint" />
          </mxGeometry>
        </mxCell>
        <mxCell id="vBVGF3Je4iqO3mpxZqWS-10" value="a: Object" style="html=1;verticalAlign=bottom;endArrow=open;dashed=1;endSize=8;exitX=0;exitY=0.95;" parent="1" source="vBVGF3Je4iqO3mpxZqWS-8" target="vBVGF3Je4iqO3mpxZqWS-2" edge="1">
          <mxGeometry x="-0.0065" relative="1" as="geometry">
            <mxPoint x="389" y="296" as="targetPoint" />
            <mxPoint as="offset" />
          </mxGeometry>
        </mxCell>
        <mxCell id="vBVGF3Je4iqO3mpxZqWS-11" value="curr: Telepes" style="shape=umlLifeline;perimeter=lifelinePerimeter;whiteSpace=wrap;html=1;container=1;collapsible=0;recursiveResize=0;outlineConnect=0;" parent="1" vertex="1">
          <mxGeometry x="560" y="120" width="100" height="570" as="geometry" />
        </mxCell>
        <mxCell id="vBVGF3Je4iqO3mpxZqWS-12" value="" style="html=1;points=[];perimeter=orthogonalPerimeter;" parent="vBVGF3Je4iqO3mpxZqWS-11" vertex="1">
          <mxGeometry x="45" y="170" width="10" height="40" as="geometry" />
        </mxCell>
        <mxCell id="vBVGF3Je4iqO3mpxZqWS-13" value="" style="html=1;points=[];perimeter=orthogonalPerimeter;" parent="vBVGF3Je4iqO3mpxZqWS-11" vertex="1">
          <mxGeometry x="45" y="250" width="10" height="40" as="geometry" />
        </mxCell>
        <mxCell id="vBVGF3Je4iqO3mpxZqWS-14" value="TeleportEpit(e:TeleportEpito)" style="html=1;verticalAlign=bottom;endArrow=block;entryX=0;entryY=0;" parent="1" source="vBVGF3Je4iqO3mpxZqWS-2" target="vBVGF3Je4iqO3mpxZqWS-12" edge="1">
          <mxGeometry x="-0.0183" relative="1" as="geometry">
            <mxPoint x="535" y="275" as="sourcePoint" />
            <mxPoint as="offset" />
          </mxGeometry>
        </mxCell>
        <mxCell id="vBVGF3Je4iqO3mpxZqWS-15" value="" style="html=1;verticalAlign=bottom;endArrow=open;dashed=1;endSize=8;exitX=0;exitY=0.95;" parent="1" source="vBVGF3Je4iqO3mpxZqWS-12" target="vBVGF3Je4iqO3mpxZqWS-3" edge="1">
          <mxGeometry relative="1" as="geometry">
            <mxPoint x="535" y="351" as="targetPoint" />
          </mxGeometry>
        </mxCell>
        <mxCell id="vBVGF3Je4iqO3mpxZqWS-16" value=":Palya" style="shape=umlLifeline;perimeter=lifelinePerimeter;whiteSpace=wrap;html=1;container=1;collapsible=0;recursiveResize=0;outlineConnect=0;" parent="1" vertex="1">
          <mxGeometry x="700" y="120" width="100" height="580" as="geometry" />
        </mxCell>
        <mxCell id="vBVGF3Je4iqO3mpxZqWS-17" value="" style="html=1;points=[];perimeter=orthogonalPerimeter;" parent="vBVGF3Je4iqO3mpxZqWS-16" vertex="1">
          <mxGeometry x="45" y="330" width="10" height="50" as="geometry" />
        </mxCell>
        <mxCell id="vBVGF3Je4iqO3mpxZqWS-18" value="nextTelepes()" style="html=1;verticalAlign=bottom;endArrow=block;entryX=0;entryY=0;" parent="1" source="vBVGF3Je4iqO3mpxZqWS-3" target="vBVGF3Je4iqO3mpxZqWS-17" edge="1">
          <mxGeometry relative="1" as="geometry">
            <mxPoint x="675" y="420" as="sourcePoint" />
          </mxGeometry>
        </mxCell>
        <mxCell id="vBVGF3Je4iqO3mpxZqWS-19" value="t: Telepes" style="html=1;verticalAlign=bottom;endArrow=open;dashed=1;endSize=8;exitX=0;exitY=0.95;" parent="1" source="vBVGF3Je4iqO3mpxZqWS-17" target="vBVGF3Je4iqO3mpxZqWS-2" edge="1">
          <mxGeometry relative="1" as="geometry">
            <mxPoint x="675" y="496" as="targetPoint" />
          </mxGeometry>
        </mxCell>
        <mxCell id="vBVGF3Je4iqO3mpxZqWS-21" value="RobotEpit(e: RobotEpito)" style="html=1;verticalAlign=bottom;endArrow=block;entryX=0;entryY=0;" parent="1" source="vBVGF3Je4iqO3mpxZqWS-3" target="vBVGF3Je4iqO3mpxZqWS-13" edge="1">
          <mxGeometry x="-0.0183" relative="1" as="geometry">
            <mxPoint x="319.32352941176464" y="360" as="sourcePoint" />
            <mxPoint as="offset" />
          </mxGeometry>
        </mxCell>
        <mxCell id="vBVGF3Je4iqO3mpxZqWS-22" value="" style="html=1;verticalAlign=bottom;endArrow=open;dashed=1;endSize=8;exitX=0;exitY=0.95;entryX=1.311;entryY=0.45;entryDx=0;entryDy=0;entryPerimeter=0;" parent="1" source="vBVGF3Je4iqO3mpxZqWS-13" target="vBVGF3Je4iqO3mpxZqWS-3" edge="1">
          <mxGeometry relative="1" as="geometry">
            <mxPoint x="325" y="397.9999999999999" as="targetPoint" />
          </mxGeometry>
        </mxCell>
        <mxCell id="vBVGF3Je4iqO3mpxZqWS-23" value="[a felhasznalo teleportkapu epitseset valasztotta]" style="text;html=1;strokeColor=none;fillColor=none;align=center;verticalAlign=middle;whiteSpace=wrap;rounded=0;" parent="1" vertex="1">
          <mxGeometry x="170" y="310" width="140" height="20" as="geometry" />
        </mxCell>
        <mxCell id="vBVGF3Je4iqO3mpxZqWS-24" value="[a felhasznalo robot epiteset valasztotta]" style="text;html=1;strokeColor=none;fillColor=none;align=center;verticalAlign=middle;whiteSpace=wrap;rounded=0;" parent="1" vertex="1">
          <mxGeometry x="170" y="390" width="145" height="20" as="geometry" />
        </mxCell>
        <mxCell id="vBVGF3Je4iqO3mpxZqWS-25" value="form: MainGui" style="shape=umlLifeline;perimeter=lifelinePerimeter;whiteSpace=wrap;html=1;container=1;collapsible=0;recursiveResize=0;outlineConnect=0;" parent="1" vertex="1">
          <mxGeometry x="820" y="120" width="100" height="570" as="geometry" />
        </mxCell>
        <mxCell id="vBVGF3Je4iqO3mpxZqWS-26" value="" style="html=1;points=[];perimeter=orthogonalPerimeter;" parent="vBVGF3Je4iqO3mpxZqWS-25" vertex="1">
          <mxGeometry x="45" y="430" width="10" height="50" as="geometry" />
        </mxCell>
        <mxCell id="vBVGF3Je4iqO3mpxZqWS-27" value="changeTelepes(t:Telepes)" style="html=1;verticalAlign=bottom;endArrow=block;entryX=0;entryY=0;" parent="1" source="vBVGF3Je4iqO3mpxZqWS-3" target="vBVGF3Je4iqO3mpxZqWS-26" edge="1">
          <mxGeometry relative="1" as="geometry">
            <mxPoint x="795" y="550" as="sourcePoint" />
          </mxGeometry>
        </mxCell>
        <mxCell id="vBVGF3Je4iqO3mpxZqWS-28" value="" style="html=1;verticalAlign=bottom;endArrow=open;dashed=1;endSize=8;exitX=0;exitY=0.95;" parent="1" source="vBVGF3Je4iqO3mpxZqWS-26" target="vBVGF3Je4iqO3mpxZqWS-2" edge="1">
          <mxGeometry relative="1" as="geometry">
            <mxPoint x="795" y="626" as="targetPoint" />
          </mxGeometry>
        </mxCell>
        <mxCell id="rgchCqHA8T5K3ekURQgf-1" value="építés választása" style="shape=umlFrame;whiteSpace=wrap;html=1;width=80;height=40;" vertex="1" parent="1">
          <mxGeometry x="10" y="70" width="930" height="640" as="geometry" />
        </mxCell>
      </root>
    </mxGraphModel>
  </diagram>
</mxfile>
